<?xml version="1.0" encoding="UTF-8" standalone="no"?>
<svg xmlns="http://www.w3.org/2000/svg" xmlns:xlink="http://www.w3.org/1999/xlink" xmlns:sketch="http://www.bohemiancoding.com/sketch/ns" width="75px" height="30px" viewBox="0 0 75 30" version="1.1">
  <!-- Generator: Sketch 3.4 (15575) - http://www.bohemiancoding.com/sketch -->
  <title>Fill 38</title>
  <desc>Created with Sketch.</desc>
  <defs/>
  <g id="Assets" stroke="none" stroke-width="1" fill="none" fill-rule="evenodd" sketch:type="MSPage">
    <g id="Artboard-1" sketch:type="MSArtboardGroup" transform="translate(-80.000000, -70.000000)" fill="#FFFFFF">
      <path d="M154.301341,72.1344928 L142.255359,72.1344928 L143.012713,70.0021721 L154.301341,70.0021721 L154.301341,72.1344928 Z M121.331102,70.0014481 L132.493023,70 L133.244584,72.137389 C133.248204,72.1352169 121.333998,72.1410093 121.333998,72.137389 C121.333998,72.1352169 121.328206,70.0014481 121.331102,70.0014481 Z M112.21172,70.0014481 C114.103657,70.1846322 115.748694,70.8587207 117.151174,72.137389 C117.151174,72.137389 96.3362489,72.1402852 96.3362489,72.137389 L96.3362489,70.0014481 L112.21172,70.0014481 Z M80.0010071,70.0010861 L94.4609652,70.0010861 L94.4609652,72.1334068 L80.0010071,72.1334068 L80.0010071,70.0010861 Z M154.301341,76.1344948 L140.854326,76.1344948 C140.854326,76.1344948 141.593579,74.0137588 141.589959,74.0130348 L154.301341,74.0130348 L154.301341,76.1344948 Z M134.667338,76.137753 L121.331102,76.137753 L121.330378,74.0126728 L133.909984,74.0126728 L134.667338,76.137753 Z M118.771231,74.0130348 C119.046369,74.713913 119.371467,75.3119765 119.371467,76.1344948 L96.3387831,76.1344948 L96.3387831,74.0130348 L118.771231,74.0130348 Z M80.0010071,74.0130348 L94.4609652,74.0130348 L94.4609652,76.1344948 L80.0010071,76.1344948 L80.0010071,74.0130348 Z M140.1806,78.0137607 L139.434831,80.1453574 L150.210834,80.1453574 C150.214454,80.1410131 150.205765,78.0166569 150.210834,78.0166569 L140.1806,78.0137607 Z M135.332014,78.0137607 L136.085024,80.1453574 L125.403147,80.1453574 L125.403147,78.0137607 L135.332014,78.0137607 Z M119.553203,78.0130367 C119.553203,78.744325 119.461249,79.5052992 119.247655,80.1453574 L112.943371,80.1453574 L112.943371,78.0130367 L119.553203,78.0130367 Z M84.0325051,78.0235354 L90.2470071,78.0235354 L90.2470071,80.1449954 L84.0325051,80.1449954 L84.0325051,78.0235354 Z M100.522693,78.0126747 L106.727783,78.0126747 L106.727783,80.1449954 L100.522693,80.1449954 L100.522693,78.0126747 Z M138.789342,81.943168 L150.210834,81.943168 L150.210834,84.0660761 L144.127384,84.0660761 C144.127384,84.0820051 144.124488,82.4492774 144.124488,82.4492774 C144.124488,82.4492774 143.560455,84.0624558 143.560455,84.0660761 L138.080861,84.0660761 L138.789342,81.943168 Z M131.503249,82.4456572 C131.503249,82.4456572 131.506145,84.0624558 131.503973,84.06499 L125.403147,84.06499 L125.403147,81.94353 L136.714945,81.94353 L137.475195,84.0657141 C137.475195,84.0657141 132.070903,84.0696963 132.070903,84.0657141 L131.503249,82.4456572 Z M100.523055,81.943168 L118.333906,81.943168 L118.333906,81.9417199 C117.945093,82.6534589 117.237698,83.5165238 116.56723,84.064628 C116.56723,84.064628 100.523055,84.0682482 100.523055,84.064628 L100.523055,81.943168 Z M84.0325051,81.9420819 L90.2470071,81.9420819 L90.2470071,84.06499 L84.0325051,84.06499 L84.0325051,81.9420819 Z M144.127384,85.944618 L150.210834,85.944618 L150.210834,88.066078 L144.127384,88.066078 L144.127384,85.944618 Z M131.503973,85.944256 L125.403147,85.944256 L125.403147,88.065716 C125.399526,88.0649919 131.506145,88.06644 131.506145,88.065716 C131.506145,88.0649919 131.512662,85.944256 131.503973,85.944256 Z M142.900123,85.944256 C142.872609,85.9413598 142.188384,88.0649919 142.156888,88.065716 L133.494743,88.0700603 C133.487502,88.065716 132.733406,85.9413598 132.731958,85.944256 L142.900123,85.944256 Z M100.523055,85.943532 L116.538268,85.943532 C117.268108,86.5531802 117.92844,87.3043797 118.446858,88.066078 C118.475096,88.0649919 100.523055,88.0671641 100.523055,88.066078 L100.523055,85.943532 Z M90.2470071,88.0649919 L90.2470071,85.943894 L84.0419177,85.943894 C84.0419177,85.943894 84.0433658,88.0649919 84.0419177,88.0649919 L90.2470071,88.0649919 Z M144.127022,89.9442579 L150.209023,89.9442579 L150.209023,92.06789 L144.127022,92.06789 L144.127022,89.9442579 Z M125.403147,89.944982 L131.503973,89.944982 L131.503973,92.067166 L125.403147,92.067166 L125.403147,89.944982 Z M140.736306,92.0765786 C140.737755,92.0686141 141.487144,89.9435339 141.498005,89.9442579 L134.132267,89.9442579 C134.119234,89.9442579 134.888897,92.0686141 134.888897,92.0686141 C134.888897,92.0686141 140.734858,92.0859912 140.736306,92.0765786 Z M100.523055,92.066804 L100.523055,89.9446199 L106.820099,89.9446199 C106.820099,89.9446199 106.825167,92.0682521 106.820099,92.0682521 C106.813582,92.0682521 100.523055,92.0660799 100.523055,92.066804 Z M119.330196,89.9442579 C119.63502,90.5843162 119.66543,91.3460144 119.725526,92.0769406 L113.05415,92.0769406 L113.05415,89.9442579 L119.330196,89.9442579 Z M84.0419177,89.944982 L90.2470071,89.944982 L90.2470071,92.067166 L84.0419177,92.067166 L84.0419177,89.944982 Z M144.127746,93.8635285 L154.301341,93.8635285 L154.301341,95.9871606 L144.127746,95.9871606 L144.127746,93.8635285 Z M121.330378,93.8642526 L131.503249,93.8642526 L131.503249,95.9857125 L121.330378,95.9857125 L121.330378,93.8642526 Z M139.367132,95.9857125 L136.262415,95.9857125 L135.516646,93.8642526 L140.085387,93.8642526 L139.367132,95.9857125 Z M80.0017311,93.8642526 L80.0017311,95.9857125 L94.4508285,95.9857125 C94.4569829,95.9900568 94.44395,93.8657007 94.4508285,93.8657007 C94.4569829,93.8657007 79.985078,93.8642526 80.0017311,93.8642526 Z M119.461611,93.8642526 C119.309561,94.5651308 119.169095,95.417335 118.658642,95.9878847 L118.467131,95.9857125 L96.3391451,95.9857125 L96.3391451,93.8642526 L119.461611,93.8642526 Z M137.960307,99.9922309 L137.673584,99.9922309 L136.948088,97.8653406 L138.704628,97.8653406 L137.960307,99.9922309 Z M144.127746,97.8646165 L154.301341,97.8646165 L154.301341,99.9969372 L144.127746,99.9969372 L144.127746,97.8646165 Z M96.3366109,99.9987473 L96.3366109,97.8682368 C96.3366109,97.8682368 117.212356,97.871857 117.273176,97.871857 C115.87142,99.2120694 113.974415,99.9972992 111.876124,99.9972992 L96.3366109,99.9987473 Z M121.330378,97.8646165 L131.503249,97.8646165 L131.503249,99.9969372 L121.330378,99.9969372 L121.330378,97.8646165 Z M94.4508285,97.8649785 C94.4508285,97.8649785 94.4443121,99.9987473 94.4508285,99.9987473 C94.4573449,99.9987473 80.0046273,100.002368 80.0017311,99.9972992 C79.9966628,99.9922309 80.0046273,97.8685988 80.0017311,97.8685988 C79.9966628,97.8685988 94.4443121,97.872219 94.4508285,97.8649785 Z" id="Fill-38" sketch:type="MSShapeGroup"/>
    </g>
  </g>
</svg>
