<?xml version="1.0" encoding="UTF-8" standalone="no"?>
<!DOCTYPE svg PUBLIC "-//W3C//DTD SVG 1.1//EN" "http://www.w3.org/Graphics/SVG/1.1/DTD/svg11.dtd">
<svg version="1.1" xmlns="http://www.w3.org/2000/svg" xmlns:xlink="http://www.w3.org/1999/xlink" preserveAspectRatio="xMidYMid meet" viewBox="0 0 640 640" width="640" height="640"><defs><path d="" id="f2cEjIKRqW"></path><path d="M130.81 316.23L59.08 373.62L59.08 388.86L578.23 388.86L578.23 373.62L506.5 316.23L506.5 114.49L130.81 114.49L130.81 316.23Z" id="aE5zrzNck"></path><path d="M475.12 320L162.19 320" id="g1SqNzaU1f"></path><path d="M331.14 346.51C331.14 348.99 326.72 351 321.28 351C315.83 351 311.41 348.99 311.41 346.51C311.41 344.04 315.83 342.03 321.28 342.03C326.72 342.03 331.14 344.04 331.14 346.51Z" id="d22T8Z3eO"></path><path d="M471.97 148.8L165 148.8L165 293.99" id="b38fLIsmOU"></path><path d="M165.05 290.19L467.57 289.75L467.37 148.58" id="bwPWSRNVu"></path></defs><g><g><g><g><use xlink:href="#f2cEjIKRqW" opacity="1" fill-opacity="0" stroke="#2c2020" stroke-width="2" stroke-opacity="1"></use></g></g><g><g><use xlink:href="#aE5zrzNck" opacity="1" fill-opacity="0" stroke="#ffffff" stroke-width="26" stroke-opacity="1"></use></g></g><g><g></g><use xlink:href="#g1SqNzaU1f" opacity="1" fill="#ffffff" fill-opacity="1"></use><g><use xlink:href="#g1SqNzaU1f" opacity="1" fill-opacity="0" stroke="#ffffff" stroke-width="4" stroke-opacity="1"></use></g></g><g><use xlink:href="#d22T8Z3eO" opacity="1" fill="#ffffff" fill-opacity="1"></use><g><use xlink:href="#d22T8Z3eO" opacity="1" fill-opacity="0" stroke="#ffffff" stroke-width="4" stroke-opacity="1"></use></g></g><g><g><use xlink:href="#b38fLIsmOU" opacity="1" fill-opacity="0" stroke="#ffffff" stroke-width="8" stroke-opacity="1"></use></g></g><g><g><use xlink:href="#bwPWSRNVu" opacity="1" fill-opacity="0" stroke="#ffffff" stroke-width="8" stroke-opacity="1"></use></g></g></g></g></svg>